<svg width="32" height="35" viewBox="0 0 32 35" fill="none" xmlns="http://www.w3.org/2000/svg">
<rect y="3" width="32" height="32" rx="4" fill="#00D7DF"/>
<path d="M5.49805 29C5.1582 29 4.95898 28.9766 4.90039 28.9297C4.8418 28.8711 4.8125 28.6895 4.8125 28.3848V10.0684C4.8125 9.72852 4.8418 9.53516 4.90039 9.48828C4.95898 9.44141 5.16992 9.41797 5.5332 9.41797H17.5918C20.1465 9.41797 22.2793 9.72266 23.9902 10.332C25.7129 10.9414 27.0078 11.9609 27.875 13.3906C28.7539 14.8086 29.1934 16.7363 29.1934 19.1738C29.1934 21.6699 28.7539 23.6328 27.875 25.0625C27.0078 26.4922 25.7129 27.5059 23.9902 28.1035C22.2793 28.7012 20.1465 29 17.5918 29H5.49805ZM6.30664 27.8398H17.5918C20.1348 27.8398 22.1387 27.5469 23.6035 26.9609C25.0801 26.3633 26.1289 25.4258 26.75 24.1484C27.3828 22.8711 27.6992 21.2129 27.6992 19.1738C27.6992 17.1582 27.3828 15.5176 26.75 14.252C26.1289 12.9863 25.0801 12.0605 23.6035 11.4746C22.1387 10.877 20.1348 10.5781 17.5918 10.5781H6.30664V27.8398Z" fill="white"/>
</svg>
